<?xml version="1.0" standalone="no"?><!DOCTYPE svg PUBLIC "-//W3C//DTD SVG 1.1//EN" "http://www.w3.org/Graphics/SVG/1.1/DTD/svg11.dtd"><svg t="1619628470985" class="icon" viewBox="0 0 1024 1024" version="1.1" xmlns="http://www.w3.org/2000/svg" p-id="1763" xmlns:xlink="http://www.w3.org/1999/xlink" width="32" height="32"><defs><style type="text/css"></style></defs><path d="M400.766293 928.597333c-18.090667 111.616 175.957333-153.6 175.957334-153.6s173.226667 127.488 197.973333 153.6 75.434667 27.136 87.893333-22.016c27.818667-112.128 63.146667-322.730667 158.72-779.093333 10.922667-52.394667-7.168-68.266667-48.64-55.808C870.611627 102.4 134.69696 382.122667 48.851627 423.424c-45.397333 21.674667-71.68 46.250667-22.016 65.877333C85.54496 512 268.84096 577.194667 268.84096 577.194667L847.91296 204.8s-147.114667 168.106667-271.189333 284.501333c-88.746667 83.114667-151.381333 144.384-153.6 153.6-6.485333 22.698667-1.877333 159.232-22.357334 285.696z" p-id="1764" fill="#2c2c2c"></path></svg>